<mxfile host="app.diagrams.net" modified="2023-04-14T16:05:15.672Z" agent="Mozilla/5.0 (Macintosh; Intel Mac OS X 10_15_7) AppleWebKit/537.36 (KHTML, like Gecko) Chrome/112.0.0.0 Safari/537.36" etag="iFRAnJjlclxR-ZZD-6QN" version="21.1.4" type="device">
  <diagram name="第 1 页" id="LZNF_8T9O6yg8gX1w5-V">
    <mxGraphModel dx="293" dy="741" grid="0" gridSize="10" guides="1" tooltips="1" connect="1" arrows="1" fold="1" page="1" pageScale="1" pageWidth="1654" pageHeight="2336" math="0" shadow="0">
      <root>
        <mxCell id="0" />
        <mxCell id="1" parent="0" />
        <mxCell id="F_sDWDLbUKnOG0Z-pPJB-4" style="edgeStyle=orthogonalEdgeStyle;rounded=0;orthogonalLoop=1;jettySize=auto;html=1;exitX=0.5;exitY=0;exitDx=0;exitDy=0;entryX=0.5;entryY=0;entryDx=0;entryDy=0;" edge="1" parent="1" source="F_sDWDLbUKnOG0Z-pPJB-1" target="F_sDWDLbUKnOG0Z-pPJB-3">
          <mxGeometry relative="1" as="geometry">
            <Array as="points">
              <mxPoint x="170" y="60" />
              <mxPoint x="430" y="60" />
            </Array>
          </mxGeometry>
        </mxCell>
        <mxCell id="F_sDWDLbUKnOG0Z-pPJB-1" value="&lt;span style=&quot;font-size: 20px;&quot;&gt;线程A&lt;br&gt;持有锁a&lt;br&gt;&lt;/span&gt;" style="rounded=0;whiteSpace=wrap;html=1;fontFamily=Songti TC;" vertex="1" parent="1">
          <mxGeometry x="120" y="120" width="120" height="60" as="geometry" />
        </mxCell>
        <mxCell id="F_sDWDLbUKnOG0Z-pPJB-6" style="edgeStyle=orthogonalEdgeStyle;rounded=0;orthogonalLoop=1;jettySize=auto;html=1;exitX=0.5;exitY=1;exitDx=0;exitDy=0;" edge="1" parent="1" source="F_sDWDLbUKnOG0Z-pPJB-3">
          <mxGeometry relative="1" as="geometry">
            <mxPoint x="170" y="180" as="targetPoint" />
            <Array as="points">
              <mxPoint x="430" y="240" />
              <mxPoint x="170" y="240" />
              <mxPoint x="170" y="180" />
            </Array>
          </mxGeometry>
        </mxCell>
        <mxCell id="F_sDWDLbUKnOG0Z-pPJB-3" value="&lt;span style=&quot;font-size: 20px;&quot;&gt;线程B&lt;br&gt;持有锁b&lt;br&gt;&lt;/span&gt;" style="rounded=0;whiteSpace=wrap;html=1;fontFamily=Songti TC;" vertex="1" parent="1">
          <mxGeometry x="370" y="120" width="120" height="60" as="geometry" />
        </mxCell>
        <mxCell id="F_sDWDLbUKnOG0Z-pPJB-5" value="&lt;font style=&quot;font-size: 20px;&quot; face=&quot;Songti TC&quot;&gt;申请锁b&lt;/font&gt;" style="text;html=1;align=center;verticalAlign=middle;resizable=0;points=[];autosize=1;strokeColor=none;fillColor=none;" vertex="1" parent="1">
          <mxGeometry x="260" y="20" width="90" height="40" as="geometry" />
        </mxCell>
        <mxCell id="F_sDWDLbUKnOG0Z-pPJB-7" value="&lt;font style=&quot;font-size: 20px;&quot; face=&quot;Songti TC&quot;&gt;申请锁a&lt;/font&gt;" style="text;html=1;align=center;verticalAlign=middle;resizable=0;points=[];autosize=1;strokeColor=none;fillColor=none;" vertex="1" parent="1">
          <mxGeometry x="260" y="240" width="90" height="40" as="geometry" />
        </mxCell>
        <mxCell id="F_sDWDLbUKnOG0Z-pPJB-8" value="&lt;font color=&quot;#0000ff&quot; style=&quot;font-size: 20px;&quot; face=&quot;Songti TC&quot;&gt;死锁&lt;/font&gt;" style="text;html=1;align=center;verticalAlign=middle;resizable=0;points=[];autosize=1;strokeColor=none;fillColor=none;" vertex="1" parent="1">
          <mxGeometry x="74" y="14" width="58" height="36" as="geometry" />
        </mxCell>
      </root>
    </mxGraphModel>
  </diagram>
</mxfile>
